# xmcd
#
# Track frame offsets: 
#        150
#        22202
#        38094
#        57418
#        71655
#        90358
#        107074
#        121363
#        140011
#        157085
#        176295
#        195960
#        214273
#        232967
#        252012
#        270560
#        292790
#        312964
#        331953
#
# Disc length: 4631 seconds
#
# Revision: 1
# Processed by: cddbd v1.5.2PL0 Copyright (c) Steve Scherf et al.
# Submitted via: ExactAudioCopy v0.99pb4
#
DISCID=0b121513
DTITLE=Игорь Герман - Лучшее
DYEAR=2006
DGENRE=Chanson
TTITLE0=Я увижу твой взгляд
TTITLE1=Зазвени ты, гитара моя
TTITLE2=Под городом Хабаровском
TTITLE3=Замкнутый круг
TTITLE4=Ялта
TTITLE5=Вальс-романс
TTITLE6=Заломаю белую
TTITLE7=Карты
TTITLE8=Памяти друга
TTITLE9=Пройдет осенний листопад
TTITLE10=Светка
TTITLE11=Цыгане, цыгане
TTITLE12=Слеза на стекле
TTITLE13=Гуцулочка
TTITLE14=Как ты далеко, моя красавица
TTITLE15=А на дворе
TTITLE16=Ох, лечу, лечу
TTITLE17=Пианист
TTITLE18=Арбат (Привет, бродяги)
EXTD=
EXTT0=
EXTT1=
EXTT2=
EXTT3=
EXTT4=
EXTT5=
EXTT6=
EXTT7=
EXTT8=
EXTT9=
EXTT10=
EXTT11=
EXTT12=
EXTT13=
EXTT14=
EXTT15=
EXTT16=
EXTT17=
EXTT18=
PLAYORDER=
